<svg width="32" height="32" viewBox="0 0 32 32" fill="none" xmlns="http://www.w3.org/2000/svg">
  <path d="M16 0C7.164 0 0 7.164 0 16C0 24.836 7.164 32 16 32C24.836 32 32 24.836 32 16C32 7.164 24.836 0 16 0Z" fill="#0052FF"/>
  <path d="M16.0006 6.4C10.6986 6.4 6.40063 10.698 6.40063 16C6.40063 21.302 10.6986 25.6 16.0006 25.6C21.3026 25.6 25.6006 21.302 25.6006 16C25.6006 10.698 21.3026 6.4 16.0006 6.4ZM13.2006 19.6H10.4006V12.4H13.2006V19.6ZM21.6006 16C21.6006 18.032 19.9326 19.7 17.9006 19.7H16.0006C15.5586 19.7 15.2006 19.342 15.2006 18.9V13.1C15.2006 12.658 15.5586 12.3 16.0006 12.3H17.9006C19.9326 12.3 21.6006 13.968 21.6006 16Z" fill="white"/>
</svg>