<svg width="32" height="32" viewBox="0 0 32 32" fill="none" xmlns="http://www.w3.org/2000/svg">
  <path d="M8.19451 11.8796C13.2667 6.80736 21.5333 6.80736 26.6055 11.8796L27.1636 12.4376C27.3939 12.6679 27.3939 13.0437 27.1636 13.274L25.2788 15.1588C25.1636 15.274 24.9758 15.274 24.8606 15.1588L24.0848 14.383C20.4242 10.7224 14.3758 10.7224 10.7152 14.383L9.87451 15.2237C9.75931 15.3389 9.57147 15.3389 9.45627 15.2237L7.57147 13.3389C7.34117 13.1086 7.34117 12.7328 7.57147 12.5025L8.19451 11.8796ZM29.9273 15.2013L31.5939 16.868C31.8242 17.0983 31.8242 17.474 31.5939 17.7043L23.7333 25.5649C23.503 25.7952 23.1273 25.7952 22.897 25.5649L17.3333 20.0012C17.2758 19.9437 17.1879 19.9437 17.1303 20.0012L11.5667 25.5649C11.3364 25.7952 10.9606 25.7952 10.7303 25.5649L2.86971 17.7043C2.63941 17.474 2.63941 17.0983 2.86971 16.868L4.53637 15.2013C4.76667 14.971 5.14241 14.971 5.37271 15.2013L10.9364 20.7649C10.9939 20.8225 11.0818 20.8225 11.1394 20.7649L16.703 15.2013C16.9333 14.971 17.3091 14.971 17.5394 15.2013L23.103 20.7649C23.1606 20.8225 23.2485 20.8225 23.3061 20.7649L28.8697 15.2013C29.097 14.971 29.4727 14.971 29.7031 15.2013H29.9273Z" fill="#3B99FC"/>
</svg>